{"title":"Castle - S04E07 - 720p WEB-DL H.264 {$H@uN}","uid":6791064,"size":417653832,"categoryP":"video","categoryS":"hd___tv_shows","magnet":"?xt=urn:btih:0363663a7d475ba8401d1899e426e99d332a37d4&amp;dn=Castle+-+S04E07+-+720p+WEB-DL+H.264+%7B%24H%40uN%7D&amp;tr=udp%3A%2F%2Ftracker.openbittorrent.com%3A80&amp;tr=udp%3A%2F%2Fopen.demonii.com%3A1337&amp;tr=udp%3A%2F%2Ftracker.coppersurfer.tk%3A6969&amp;tr=udp%3A%2F%2Fexodus.desync.com%3A6969","seeders":0,"leechers":1,"uploader":"ShaunGP","files":-1,"time":1320267000,"description":"&quot;WEB-DL means straight from iTunes where they release &quot;Bluray&quot; quality episodes.\n Such episodes are without any Logo and Caps.&quot;\n\nCastle - S04E07 - Cops And Robbers - 720p WEB-DL H.264 {$H@uN}\n\nGeneral:\n\nComplete name                  : Castle - S04E07 - Cops And Robbers - 720p WEB-DL H.264 {$H@uN}.mkv\nOriginal air date              : October 31 2011\nGenre                          : Police procedural, Comedy-drama\nLanguage                       : English\nEncoder                        : $H@uN\nFile format                    : Matroska\nFile size                      : 398 MiB\nDuration                       : 42mn 48s\nOverall bit rate               : 1 301 Kbps\n\n\nVideo:\n\nFormat                         : AVC\nDuration                       : 42mn 48s\nBit rate                       : 1 200 Kbps\nWidth                          : 1 280 pixels\nHeight                         : 720 pixels\nDisplay aspect ratio           : 16:9\nFrame rate mode                : Variable\nFrame rate                     : 23.976 fps\nColor space                    : YUV\nChroma subsampling             : 4:2:0\nBit depth                      : 8 bits\nScan type                      : Progressive\nBits/(Pixel*Frame)             : 0.054\nStream size                    : 361 MiB (91%)\nWriting library                : x264 core 112\nLanguage                       : English\nSubtitles                      : Seperate .srt file included\n\n\nAudio:\n\nFormat                         : AC-3\nMode extension                 : CM (complete main)\nCodec ID                       : A_AC3\nDuration                       : 42mn 48s\nBit rate mode                  : Constant\nBit rate                       : 96 Kbps\nChannel(s)                     : 2 channels\nChannel positions              : Front: L R\nSampling rate                  : 48.0 KHz\nBit depth                      : 16 bits\nCompression mode               : Lossy\nStream size                    : 29.4 MiB (7%)\nLanguage                       : English\n\nScreen Shots:\n &lt;a href=&quot;\nhttp://i1140.photobucket.com/albums/n566/ShaunGP/ScreenShots1/Castle-S04E07-CopsAndRobbers-720pWEB-DLH264HuNmkv_snapshot_0025_20111103_011038.jpg&quot; rel=&quot;nofollow&quot; target=&quot;_NEW&quot;&gt;\nhttp://i1140.photobucket.com/albums/n566/ShaunGP/ScreenShots1/Castle-S04E07-CopsAndRobbers-720pWEB-DLH264HuNmkv_snapshot_0025_20111103_011038.jpg&lt;/a&gt;\n &lt;a href=&quot;\nhttp://i1140.photobucket.com/albums/n566/ShaunGP/ScreenShots1/Castle-S04E07-CopsAndRobbers-720pWEB-DLH264HuNmkv_snapshot_0100_20111103_011108.jpg&quot; rel=&quot;nofollow&quot; target=&quot;_NEW&quot;&gt;\nhttp://i1140.photobucket.com/albums/n566/ShaunGP/ScreenShots1/Castle-S04E07-CopsAndRobbers-720pWEB-DLH264HuNmkv_snapshot_0100_20111103_011108.jpg&lt;/a&gt;\n &lt;a href=&quot;\nhttp://i1140.photobucket.com/albums/n566/ShaunGP/ScreenShots1/Castle-S04E07-CopsAndRobbers-720pWEB-DLH264HuNmkv_snapshot_4031_20111103_011235.jpg&quot; rel=&quot;nofollow&quot; target=&quot;_NEW&quot;&gt;\nhttp://i1140.photobucket.com/albums/n566/ShaunGP/ScreenShots1/Castle-S04E07-CopsAndRobbers-720pWEB-DLH264HuNmkv_snapshot_4031_20111103_011235.jpg&lt;/a&gt;\n\n\nEncoder's Notes:\n\nDo Provide Feedback.\nKeep in Mind, you are charged nothing for Downloading a TORRENT,\nso its your duty to SEED n keep the torrent alive for as long as possible.\nEnjoy..!!! Keep Seeding till 1:1 ratio...","torrent":{"xt":"urn:btih:0363663a7d475ba8401d1899e426e99d332a37d4","amp;dn":"Castle+-+S04E07+-+720p+WEB-DL+H.264+%7B%24H%40uN%7D","amp;tr":["udp%3A%2F%2Ftracker.openbittorrent.com%3A80","udp%3A%2F%2Fopen.demonii.com%3A1337","udp%3A%2F%2Ftracker.coppersurfer.tk%3A6969","udp%3A%2F%2Fexodus.desync.com%3A6969"],"infoHash":"0363663a7d475ba8401d1899e426e99d332a37d4","infoHashBuffer":{"type":"Buffer","data":[3,99,102,58,125,71,91,168,64,29,24,153,228,38,233,157,51,42,55,212]},"announce":[],"urlList":[]}}